<svg width="60" height="60" viewBox="0 0 60 60" fill="none" xmlns="http://www.w3.org/2000/svg">
<circle cx="30" cy="30" r="30" fill="#2C4587"/>
<path d="M28.5 46.1111C28.5 46.9395 29.1716 47.6111 30 47.6111C30.8284 47.6111 31.5 46.9395 31.5 46.1111L28.5 46.1111ZM31.0607 13.3838C30.4749 12.798 29.5251 12.798 28.9393 13.3838L19.3934 22.9297C18.8076 23.5155 18.8076 24.4652 19.3934 25.051C19.9792 25.6368 20.9289 25.6368 21.5147 25.051L30 16.5657L38.4853 25.051C39.0711 25.6368 40.0208 25.6368 40.6066 25.051C41.1924 24.4652 41.1924 23.5155 40.6066 22.9297L31.0607 13.3838ZM31.5 46.1111L31.5 14.4444L28.5 14.4444L28.5 46.1111L31.5 46.1111Z" fill="white"/>
</svg>
