<svg width="30" height="30" viewBox="0 0 30 30" fill="none" xmlns="http://www.w3.org/2000/svg">
<rect width="30" height="30" rx="15" fill="#FFD233"/>
<path d="M19.6075 17.1745C19.6075 18.0151 19.8464 18.3503 20.471 18.3503C21.8632 18.3503 22.7497 16.5741 22.7497 13.62C22.7497 9.10495 19.4636 6.94346 15.3609 6.94346C11.1403 6.94346 7.30145 9.77741 7.30145 15.1331C7.30145 20.2486 10.6596 23.0345 15.8167 23.0345C17.5677 23.0345 18.743 22.8424 20.541 22.242L20.9268 23.8501C19.1518 24.4275 17.2548 24.5946 15.7927 24.5946C9.02848 24.5946 5.40552 20.872 5.40552 15.1321C5.40552 9.34411 9.60415 5.40541 15.3849 5.40541C21.4055 5.40541 24.5947 9.00788 24.5947 13.4269C24.5947 17.1735 23.4204 20.0315 19.7264 20.0315C18.0464 20.0315 16.944 19.359 16.8001 17.869C16.3683 19.5261 15.217 20.0315 13.6569 20.0315C11.57 20.0315 9.81903 18.4213 9.81903 15.1801C9.81903 11.9139 11.3552 9.89649 14.1136 9.89649C15.5768 9.89649 16.4883 10.4729 16.894 11.3855L17.5907 10.1126H19.6055V17.1745H19.6075ZM16.6582 14.0043C16.6582 12.6844 15.6737 12.131 14.8582 12.131C13.9707 12.131 12.9882 12.8505 12.9882 14.965C12.9882 16.6461 13.7318 17.5828 14.8582 17.5828C15.6497 17.5828 16.6582 17.0784 16.6582 15.6855V14.0043Z" fill="white"/>
</svg>
