<svg width="40" height="40" viewBox="0 0 40 40" fill="none" xmlns="http://www.w3.org/2000/svg">
<g clip-path="url(#clip0_382_337)">
<path d="M19.9999 3.33337C29.2049 3.33337 36.6666 10.795 36.6666 20C36.6666 29.205 29.2049 36.6667 19.9999 36.6667C10.7949 36.6667 3.33325 29.205 3.33325 20C3.33325 10.795 10.7949 3.33337 19.9999 3.33337ZM19.9999 6.66671C16.4637 6.66671 13.0723 8.07147 10.5718 10.572C8.07134 13.0724 6.66659 16.4638 6.66659 20C6.66659 23.5363 8.07134 26.9276 10.5718 29.4281C13.0723 31.9286 16.4637 33.3334 19.9999 33.3334C23.5361 33.3334 26.9275 31.9286 29.428 29.4281C31.9285 26.9276 33.3333 23.5363 33.3333 20C33.3333 16.4638 31.9285 13.0724 29.428 10.572C26.9275 8.07147 23.5361 6.66671 19.9999 6.66671ZM19.9999 10C20.4081 10.0001 20.8021 10.15 21.1072 10.4212C21.4123 10.6925 21.6072 11.0663 21.6549 11.4717L21.6666 11.6667V19.31L26.1783 23.8217C26.4772 24.1216 26.6507 24.5241 26.6636 24.9473C26.6766 25.3706 26.5279 25.7829 26.2478 26.1005C25.9678 26.4181 25.5773 26.6172 25.1558 26.6574C24.7343 26.6975 24.3132 26.5757 23.9783 26.3167L23.8216 26.1784L18.8216 21.1784C18.5626 20.9191 18.3962 20.5817 18.3483 20.2184L18.3333 20V11.6667C18.3333 11.2247 18.5088 10.8008 18.8214 10.4882C19.134 10.1756 19.5579 10 19.9999 10Z" fill="#2C4587"/>
</g>
<defs>
<clipPath id="clip0_382_337">
<rect width="40" height="40" fill="white"/>
</clipPath>
</defs>
</svg>
