<svg width="40" height="40" viewBox="0 0 40 40" fill="none" xmlns="http://www.w3.org/2000/svg">
<path d="M20.0001 3.33337C12.6667 3.33337 6.66675 9.33337 6.66675 16.6667C6.66675 25.6667 18.3334 35.8334 18.8334 36.3334C19.1667 36.5 19.6667 36.6667 20.0001 36.6667C20.3334 36.6667 20.8334 36.5 21.1667 36.3334C21.6667 35.8334 33.3334 25.6667 33.3334 16.6667C33.3334 9.33337 27.3334 3.33337 20.0001 3.33337ZM20.0001 32.8334C16.5001 29.5 10.0001 22.3334 10.0001 16.6667C10.0001 11.1667 14.5001 6.66671 20.0001 6.66671C25.5001 6.66671 30.0001 11.1667 30.0001 16.6667C30.0001 22.1667 23.5001 29.5 20.0001 32.8334ZM20.0001 10C16.3334 10 13.3334 13 13.3334 16.6667C13.3334 20.3334 16.3334 23.3334 20.0001 23.3334C23.6667 23.3334 26.6667 20.3334 26.6667 16.6667C26.6667 13 23.6667 10 20.0001 10ZM20.0001 20C18.1667 20 16.6667 18.5 16.6667 16.6667C16.6667 14.8334 18.1667 13.3334 20.0001 13.3334C21.8334 13.3334 23.3334 14.8334 23.3334 16.6667C23.3334 18.5 21.8334 20 20.0001 20Z" fill="#2C4587"/>
</svg>
