<svg width="40" height="40" viewBox="0 0 40 40" fill="none" xmlns="http://www.w3.org/2000/svg">
<path d="M6.66659 33.3333C5.74992 33.3333 4.96547 33.0072 4.31325 32.355C3.66103 31.7027 3.33436 30.9177 3.33325 30V9.99996C3.33325 9.08329 3.65992 8.29885 4.31325 7.64663C4.96659 6.9944 5.75103 6.66774 6.66659 6.66663H33.3333C34.2499 6.66663 35.0349 6.99329 35.6883 7.64663C36.3416 8.29996 36.6677 9.0844 36.6666 9.99996V30C36.6666 30.9166 36.3405 31.7016 35.6883 32.355C35.036 33.0083 34.251 33.3344 33.3333 33.3333H6.66659ZM19.9999 21.6666L6.66659 13.3333V30H33.3333V13.3333L19.9999 21.6666ZM19.9999 18.3333L33.3333 9.99996H6.66659L19.9999 18.3333ZM6.66659 13.3333V9.99996V30V13.3333Z" fill="#2C4587"/>
</svg>
