<svg width="50" height="51" viewBox="0 0 50 51" fill="none" xmlns="http://www.w3.org/2000/svg">
<path d="M25.0056 13.1325C17.9113 13.1325 12.1891 18.8548 12.1891 25.949C12.1891 33.0433 17.9113 38.7655 25.0056 38.7655C32.0998 38.7655 37.8221 33.0433 37.8221 25.949C37.8221 18.8548 32.0998 13.1325 25.0056 13.1325ZM25.0056 34.2814C20.4211 34.2814 16.6732 30.5447 16.6732 25.949C16.6732 21.3534 20.4099 17.6166 25.0056 17.6166C29.6012 17.6166 33.338 21.3534 33.338 25.949C33.338 30.5447 29.5901 34.2814 25.0056 34.2814ZM41.3358 12.6082C41.3358 14.2703 39.9972 15.5976 38.3463 15.5976C36.6843 15.5976 35.3569 14.2591 35.3569 12.6082C35.3569 10.9574 36.6955 9.61884 38.3463 9.61884C39.9972 9.61884 41.3358 10.9574 41.3358 12.6082ZM49.8243 15.6423C49.6347 11.6378 48.72 8.09068 45.7864 5.1682C42.8639 2.24572 39.3168 1.33105 35.3123 1.13027C31.1852 0.896029 18.8148 0.896029 14.6877 1.13027C10.6944 1.3199 7.14724 2.23457 4.21361 5.15704C1.27998 8.07952 0.376464 11.6266 0.175683 15.6311C-0.0585611 19.7583 -0.0585611 32.1286 0.175683 36.2558C0.36531 40.2602 1.27998 43.8074 4.21361 46.7298C7.14724 49.6523 10.6832 50.567 14.6877 50.7678C18.8148 51.002 31.1852 51.002 35.3123 50.7678C39.3168 50.5781 42.8639 49.6635 45.7864 46.7298C48.7089 43.8074 49.6235 40.2602 49.8243 36.2558C50.0586 32.1286 50.0586 19.7694 49.8243 15.6423ZM44.4925 40.6841C43.6224 42.8704 41.9381 44.5547 39.7407 45.4359C36.4501 46.741 28.6419 46.4398 25.0056 46.4398C21.3692 46.4398 13.5499 46.7298 10.2705 45.4359C8.08422 44.5659 6.39989 42.8815 5.51868 40.6841C4.21361 37.3935 4.51478 29.5854 4.51478 25.949C4.51478 22.3127 4.22476 14.4934 5.51868 11.2139C6.38873 9.02765 8.07306 7.34332 10.2705 6.46212C13.5611 5.15704 21.3692 5.45822 25.0056 5.45822C28.6419 5.45822 36.4612 5.1682 39.7407 6.46212C41.9269 7.33217 43.6113 9.0165 44.4925 11.2139C45.7975 14.5045 45.4964 22.3127 45.4964 25.949C45.4964 29.5854 45.7975 37.4047 44.4925 40.6841Z" fill="white"/>
</svg>
