<svg width="30" height="30" viewBox="0 0 30 30" fill="none" xmlns="http://www.w3.org/2000/svg">
<rect width="30" height="30" rx="15" fill="#B034EB"/>
<path d="M21.3841 7.90054C20.9529 7.50532 19.2077 6.24534 15.3167 6.22846C15.3167 6.22846 10.7297 5.95484 8.49558 7.99513C7.2529 9.23146 6.81491 11.0454 6.76737 13.2918C6.71984 15.5381 6.66212 19.747 10.7399 20.8888H10.7433L10.7399 22.6318C10.7399 22.6318 10.7127 23.3378 11.1813 23.4797C11.7449 23.6553 12.0776 23.1182 12.6175 22.5406C12.9129 22.2231 13.3203 21.7569 13.6293 21.4022C16.4202 21.6353 18.5626 21.1016 18.8071 21.0239C19.3707 20.8415 22.5589 20.4361 23.075 16.2272C23.6114 11.8832 22.8169 9.14025 21.3841 7.90054ZM21.8561 15.9097C21.4181 19.4227 18.8343 19.6457 18.3589 19.7977C18.1552 19.8619 16.2708 20.328 13.9043 20.176C13.9043 20.176 12.1387 22.294 11.5887 22.8446C11.4087 23.0236 11.2118 23.0068 11.2152 22.6521C11.2152 22.419 11.2288 19.7572 11.2288 19.7572C11.2254 19.7572 11.2254 19.7572 11.2288 19.7572C7.77238 18.8046 7.9761 15.2206 8.01345 13.3458C8.0508 11.471 8.4073 9.93407 9.45985 8.90042C11.351 7.19455 15.2454 7.4479 15.2454 7.4479C18.5355 7.46141 20.1109 8.44777 20.4776 8.77881C21.6897 9.81246 22.3077 12.2851 21.8561 15.9097ZM17.1366 13.1803C17.1502 13.4708 16.7122 13.4911 16.6986 13.2006C16.6613 12.4574 16.3116 12.096 15.5918 12.0554C15.2998 12.0385 15.3269 11.6028 15.6155 11.6197C16.5628 11.6703 17.0891 12.2108 17.1366 13.1803ZM17.8259 13.562C17.8598 12.1297 16.9601 11.0083 15.2522 10.8833C14.9636 10.863 14.9942 10.4273 15.2828 10.4475C17.2521 10.5894 18.3012 11.9372 18.2639 13.5721C18.2605 13.8626 17.8191 13.8491 17.8259 13.562ZM19.4216 14.0146C19.425 14.3051 18.9837 14.3085 18.9837 14.018C18.9633 11.265 17.1196 9.76517 14.8821 9.74828C14.5935 9.74491 14.5935 9.31253 14.8821 9.31253C17.3845 9.32942 19.3979 11.0488 19.4216 14.0146ZM19.038 17.3284V17.3352C18.6713 17.977 17.9854 18.6864 17.2792 18.46L17.2724 18.4499C16.556 18.2506 14.8686 17.3858 13.8024 16.5414C13.2524 16.109 12.7499 15.5989 12.3628 15.1091C12.0131 14.6733 11.66 14.1565 11.3171 13.535C10.5939 12.2345 10.4343 11.6535 10.4343 11.6535C10.2068 10.9508 10.9164 10.2685 11.5649 9.90367H11.5717C11.8841 9.74153 12.1829 9.79558 12.3832 10.0354C12.3832 10.0354 12.8042 10.5353 12.9842 10.7819C13.1539 11.0116 13.3814 11.3798 13.5002 11.5859C13.7074 11.9541 13.5783 12.329 13.3746 12.4844L12.9672 12.8087C12.7601 12.9742 12.7872 13.2816 12.7872 13.2816C12.7872 13.2816 13.3916 15.555 15.6495 16.1292C15.6495 16.1292 15.9584 16.1563 16.1248 15.9502L16.4508 15.5449C16.6069 15.3422 16.9838 15.2138 17.3539 15.4199C17.853 15.7002 18.4879 16.136 18.909 16.5312C19.1466 16.7238 19.201 17.0176 19.038 17.3284Z" fill="white"/>
</svg>
